<svg width="90" height="90" viewBox="0 0 90 90" fill="none" xmlns="http://www.w3.org/2000/svg">
<g filter="url(#filter0_ii_92_125)">
<path d="M0 30C0 13.4315 13.4315 0 30 0H60C76.5685 0 90 13.4315 90 30V60C90 76.5685 76.5685 90 60 90H30C13.4315 90 0 76.5685 0 60V30Z" fill="#F000F5"/>
</g>
<path d="M1.5 30C1.5 14.2599 14.2599 1.5 30 1.5H60C75.7401 1.5 88.5 14.2599 88.5 30V60C88.5 75.7401 75.7401 88.5 60 88.5H30C14.2599 88.5 1.5 75.7401 1.5 60V30Z" stroke="white" stroke-width="3"/>
<g filter="url(#filter1_i_92_125)">
<path d="M34 19C31.8783 19 29.8434 19.799 28.3431 21.2211C26.8429 22.6433 26 24.5721 26 26.5833V63.4167C26 65.4279 26.8429 67.3567 28.3431 68.7789C29.8434 70.201 31.8783 71 34 71C36.1217 71 38.1566 70.201 39.6569 68.7789C41.1571 67.3567 42 65.4279 42 63.4167V26.5833C42 24.5721 41.1571 22.6433 39.6569 21.2211C38.1566 19.799 36.1217 19 34 19Z" fill="white"/>
<path d="M58 19C56.1435 19 54.363 19.799 53.0503 21.2211C51.7375 22.6433 51 24.5721 51 26.5833V63.4167C51 65.4279 51.7375 67.3567 53.0503 68.7789C54.363 70.201 56.1435 71 58 71C59.8565 71 61.637 70.201 62.9497 68.7789C64.2625 67.3567 65 65.4279 65 63.4167V26.5833C65 24.5721 64.2625 22.6433 62.9497 21.2211C61.637 19.799 59.8565 19 58 19Z" fill="white"/>
</g>
<path d="M24 10.9992C18.4 11.3992 11.5 14.9992 13 21.9992C14.5 28.9992 28 21.9992 31.5 18.4992C35 14.9992 31 10.4992 24 10.9992Z" fill="#F4F0D8" fill-opacity="0.76"/>
<path d="M12.9497 26.0161C10.7031 26.3228 6.56484 28.296 8.50201 30.1958C10.4392 32.0956 15.7668 30.2075 15.9822 28.8659C16.1976 27.5243 14.4165 25.8158 12.9497 26.0161Z" fill="#F4F0D8" fill-opacity="0.76"/>
<defs>
<filter id="filter0_ii_92_125" x="0" y="-4" width="92" height="98" filterUnits="userSpaceOnUse" color-interpolation-filters="sRGB">
<feFlood flood-opacity="0" result="BackgroundImageFix"/>
<feBlend mode="normal" in="SourceGraphic" in2="BackgroundImageFix" result="shape"/>
<feColorMatrix in="SourceAlpha" type="matrix" values="0 0 0 0 0 0 0 0 0 0 0 0 0 0 0 0 0 0 127 0" result="hardAlpha"/>
<feOffset dy="-14"/>
<feGaussianBlur stdDeviation="2"/>
<feComposite in2="hardAlpha" operator="arithmetic" k2="-1" k3="1"/>
<feColorMatrix type="matrix" values="0 0 0 0 0.620785 0 0 0 0 0.0184722 0 0 0 0 0.633333 0 0 0 1 0"/>
<feBlend mode="normal" in2="shape" result="effect1_innerShadow_92_125"/>
<feColorMatrix in="SourceAlpha" type="matrix" values="0 0 0 0 0 0 0 0 0 0 0 0 0 0 0 0 0 0 127 0" result="hardAlpha"/>
<feOffset dx="2" dy="20"/>
<feGaussianBlur stdDeviation="2"/>
<feComposite in2="hardAlpha" operator="arithmetic" k2="-1" k3="1"/>
<feColorMatrix type="matrix" values="0 0 0 0 0.988521 0 0 0 0 0.4375 0 0 0 0 1 0 0 0 1 0"/>
<feBlend mode="normal" in2="effect1_innerShadow_92_125" result="effect2_innerShadow_92_125"/>
</filter>
<filter id="filter1_i_92_125" x="26" y="19" width="39" height="56" filterUnits="userSpaceOnUse" color-interpolation-filters="sRGB">
<feFlood flood-opacity="0" result="BackgroundImageFix"/>
<feBlend mode="normal" in="SourceGraphic" in2="BackgroundImageFix" result="shape"/>
<feColorMatrix in="SourceAlpha" type="matrix" values="0 0 0 0 0 0 0 0 0 0 0 0 0 0 0 0 0 0 127 0" result="hardAlpha"/>
<feOffset dy="4"/>
<feGaussianBlur stdDeviation="2"/>
<feComposite in2="hardAlpha" operator="arithmetic" k2="-1" k3="1"/>
<feColorMatrix type="matrix" values="0 0 0 0 0 0 0 0 0 0 0 0 0 0 0 0 0 0 0.25 0"/>
<feBlend mode="normal" in2="shape" result="effect1_innerShadow_92_125"/>
</filter>
</defs>
</svg>
