<svg width="165" height="164" viewBox="0 0 165 164" fill="none" xmlns="http://www.w3.org/2000/svg">
<g filter="url(#filter0_ii_92_8)">
<rect x="0.611115" width="164" height="164" rx="30" fill="#F000F5"/>
</g>
<rect x="2.11111" y="1.5" width="161" height="161" rx="28.5" stroke="white" stroke-width="3"/>
<g filter="url(#filter1_i_92_8)">
<path d="M121.799 66.0596L83.5391 38.4378C80.5508 36.2833 77.0149 34.9857 73.3234 34.6887C69.6319 34.3916 65.929 35.1068 62.625 36.755C59.3211 38.4031 56.5452 40.9198 54.6051 44.0261C52.665 47.1325 51.6364 50.707 51.6334 54.3537V109.625C51.6276 113.275 52.6508 116.855 54.5891 119.967C56.5273 123.078 59.3046 125.599 62.6118 127.249C65.919 128.899 69.6263 129.613 73.321 129.311C77.0158 129.009 80.5531 127.704 83.5391 125.541L121.799 97.919C124.337 96.0847 126.402 93.6877 127.825 90.9219C129.247 88.1562 129.989 85.0994 129.989 81.9991C129.989 78.8988 129.247 75.8421 127.825 73.0763C126.402 70.3106 124.337 67.9136 121.799 66.0793V66.0596Z" fill="white"/>
</g>
<path d="M44.3444 20.0444C34.14 20.7733 21.5667 27.3332 24.3 40.0888C27.0333 52.8444 51.6333 40.0888 58.0111 33.711C64.3889 27.3333 57.1 19.1333 44.3444 20.0444Z" fill="#F4F0D8" fill-opacity="0.76"/>
<path d="M24.2083 47.4063C20.1146 47.9652 12.5737 51.5607 16.1037 55.0226C19.6336 58.4845 29.3418 55.0439 29.7342 52.5992C30.1267 50.1546 26.8812 47.0414 24.2083 47.4063Z" fill="#F4F0D8" fill-opacity="0.76"/>
<defs>
<filter id="filter0_ii_92_8" x="0.611115" y="-4" width="166" height="172" filterUnits="userSpaceOnUse" color-interpolation-filters="sRGB">
<feFlood flood-opacity="0" result="BackgroundImageFix"/>
<feBlend mode="normal" in="SourceGraphic" in2="BackgroundImageFix" result="shape"/>
<feColorMatrix in="SourceAlpha" type="matrix" values="0 0 0 0 0 0 0 0 0 0 0 0 0 0 0 0 0 0 127 0" result="hardAlpha"/>
<feOffset dy="-14"/>
<feGaussianBlur stdDeviation="2"/>
<feComposite in2="hardAlpha" operator="arithmetic" k2="-1" k3="1"/>
<feColorMatrix type="matrix" values="0 0 0 0 0.620785 0 0 0 0 0.0184722 0 0 0 0 0.633333 0 0 0 1 0"/>
<feBlend mode="normal" in2="shape" result="effect1_innerShadow_92_8"/>
<feColorMatrix in="SourceAlpha" type="matrix" values="0 0 0 0 0 0 0 0 0 0 0 0 0 0 0 0 0 0 127 0" result="hardAlpha"/>
<feOffset dx="2" dy="20"/>
<feGaussianBlur stdDeviation="2"/>
<feComposite in2="hardAlpha" operator="arithmetic" k2="-1" k3="1"/>
<feColorMatrix type="matrix" values="0 0 0 0 0.988521 0 0 0 0 0.4375 0 0 0 0 1 0 0 0 1 0"/>
<feBlend mode="normal" in2="effect1_innerShadow_92_8" result="effect2_innerShadow_92_8"/>
</filter>
<filter id="filter1_i_92_8" x="51.6333" y="34.623" width="78.3556" height="98.7559" filterUnits="userSpaceOnUse" color-interpolation-filters="sRGB">
<feFlood flood-opacity="0" result="BackgroundImageFix"/>
<feBlend mode="normal" in="SourceGraphic" in2="BackgroundImageFix" result="shape"/>
<feColorMatrix in="SourceAlpha" type="matrix" values="0 0 0 0 0 0 0 0 0 0 0 0 0 0 0 0 0 0 127 0" result="hardAlpha"/>
<feOffset dy="4"/>
<feGaussianBlur stdDeviation="2"/>
<feComposite in2="hardAlpha" operator="arithmetic" k2="-1" k3="1"/>
<feColorMatrix type="matrix" values="0 0 0 0 0 0 0 0 0 0 0 0 0 0 0 0 0 0 0.25 0"/>
<feBlend mode="normal" in2="shape" result="effect1_innerShadow_92_8"/>
</filter>
</defs>
</svg>
