<svg width="221" height="90" viewBox="0 0 221 90" fill="none" xmlns="http://www.w3.org/2000/svg">
<g filter="url(#filter0_ii_92_37)">
<rect width="221" height="90" rx="30" fill="#F100F5"/>
</g>
<rect x="1.5" y="1.5" width="218" height="87" rx="28.5" stroke="white" stroke-width="3"/>
<g filter="url(#filter1_i_92_37)">
<path d="M74.3297 51C74.3297 52.7839 74.0172 54.3268 73.3922 55.6289C72.7802 56.918 71.9339 57.9857 70.8531 58.832C69.7854 59.6654 68.5289 60.2839 67.0836 60.6875C65.6513 61.0781 64.1083 61.2734 62.4547 61.2734C61.8167 61.2734 61.1135 61.1888 60.3453 61.0195C59.5901 60.8503 58.8219 60.6419 58.0406 60.3945C57.2594 60.1341 56.5042 59.8607 55.775 59.5742C55.0589 59.2747 54.4208 58.9948 53.8609 58.7344L54.7203 51.0781C55.8271 51.7422 57.051 52.25 58.3922 52.6016C59.7464 52.9401 61.0745 53.1094 62.3766 53.1094C62.624 53.1094 62.9234 53.1029 63.275 53.0898C63.6266 53.0638 63.9586 53.0052 64.2711 52.9141C64.5966 52.8099 64.8701 52.6602 65.0914 52.4648C65.3128 52.2695 65.4234 51.9896 65.4234 51.625C65.4234 51.3776 65.3453 51.1693 65.1891 51C65.0328 50.8177 64.831 50.6745 64.5836 50.5703C64.3362 50.4531 64.0563 50.3685 63.7438 50.3164C63.4313 50.2513 63.1253 50.2057 62.8258 50.1797C62.5263 50.1536 62.2464 50.1406 61.9859 50.1406C61.7255 50.1406 61.5172 50.1406 61.3609 50.1406C60.2411 50.1406 59.219 49.9648 58.2945 49.6133C57.3831 49.2617 56.5953 48.7669 55.9313 48.1289C55.2802 47.4779 54.7724 46.6966 54.4078 45.7852C54.0432 44.8607 53.8609 43.8385 53.8609 42.7188C53.8609 41.1823 54.1669 39.8086 54.7789 38.5977C55.4039 37.3737 56.2307 36.3385 57.2594 35.4922C58.301 34.6328 59.4924 33.9753 60.8336 33.5195C62.1747 33.0638 63.5615 32.8359 64.9938 32.8359C65.6318 32.8359 66.2893 32.862 66.9664 32.9141C67.6435 32.9531 68.3141 33.0312 68.9781 33.1484C69.6552 33.2656 70.3128 33.4154 70.9508 33.5977C71.5888 33.7799 72.1943 34.0078 72.7672 34.2812L72.025 42.2109C71.1396 41.9115 70.2086 41.6641 69.232 41.4688C68.2685 41.2604 67.3245 41.1562 66.4 41.1562C66.2307 41.1562 66.0094 41.1628 65.7359 41.1758C65.4755 41.1758 65.1956 41.1953 64.8961 41.2344C64.6096 41.2604 64.3167 41.306 64.0172 41.3711C63.7177 41.4362 63.4508 41.5273 63.2164 41.6445C62.982 41.7487 62.7932 41.8919 62.65 42.0742C62.5068 42.2565 62.4417 42.4714 62.4547 42.7188C62.4677 43.0052 62.5719 43.2266 62.7672 43.3828C62.9755 43.5391 63.2359 43.6562 63.5484 43.7344C63.874 43.7995 64.2255 43.832 64.6031 43.832C64.9938 43.832 65.3779 43.8255 65.7555 43.8125C66.1331 43.7865 66.4846 43.7669 66.8102 43.7539C67.1357 43.7279 67.4026 43.7214 67.6109 43.7344C68.6526 43.7995 69.5901 44.0208 70.4234 44.3984C71.2568 44.776 71.9599 45.2773 72.5328 45.9023C73.1188 46.5273 73.5615 47.276 73.8609 48.1484C74.1734 49.0078 74.3297 49.9583 74.3297 51ZM97.6141 33.4609L97.4188 41.7422L91.5984 41.9766L90.8953 60.1016L82.6531 60.5312L81.9109 42.4062L76.0906 42.7188L76.325 33.5L97.6141 33.4609ZM122.617 59.3203L112.93 60.5703L111.758 56.1562H107.305L106.328 60.5703L96.3672 59.5938L104.141 33.5781L115 33.0312L122.617 59.3203ZM111.055 50.1797L109.57 43.3828L108.125 50.1797H111.055ZM147.718 42.1719C147.718 43.1875 147.627 44.112 147.445 44.9453C147.275 45.7656 147.002 46.5208 146.624 47.2109C146.247 47.901 145.758 48.5391 145.159 49.125C144.56 49.7109 143.838 50.2708 142.991 50.8047L147.64 59.0859L138.851 60.8047L135.843 52.4844L133.421 52.5625L133.07 60.6875H124.671C124.736 57.7188 124.795 54.763 124.847 51.8203C124.912 48.8776 124.984 45.9219 125.062 42.9531C125.088 41.4557 125.114 39.9714 125.14 38.5C125.166 37.0286 125.218 35.5443 125.296 34.0469C126.208 33.7083 127.106 33.4284 127.991 33.207C128.877 32.9857 129.762 32.8164 130.648 32.6992C131.546 32.569 132.451 32.4844 133.363 32.4453C134.287 32.3932 135.231 32.3672 136.195 32.3672C137.679 32.3672 139.111 32.5755 140.491 32.9922C141.885 33.3958 143.115 34.0078 144.183 34.8281C145.251 35.6484 146.103 36.6706 146.741 37.8945C147.392 39.1185 147.718 40.5443 147.718 42.1719ZM138.968 42.7969C138.968 42.25 138.89 41.7487 138.734 41.293C138.59 40.8372 138.369 40.4466 138.07 40.1211C137.783 39.7826 137.418 39.5221 136.976 39.3398C136.546 39.1445 136.038 39.0469 135.452 39.0469C135.192 39.0469 134.938 39.0664 134.691 39.1055C134.443 39.1315 134.202 39.1771 133.968 39.2422L133.655 46.5078H134.124C134.684 46.5078 135.251 46.4362 135.823 46.293C136.409 46.1497 136.93 45.9284 137.386 45.6289C137.855 45.3294 138.232 44.9453 138.519 44.4766C138.818 44.0078 138.968 43.4479 138.968 42.7969ZM171.569 33.4609L171.373 41.7422L165.553 41.9766L164.85 60.1016L156.608 60.5312L155.866 42.4062L150.045 42.7188L150.28 33.5L171.569 33.4609Z" fill="white"/>
</g>
<defs>
<filter id="filter0_ii_92_37" x="0" y="-4" width="223" height="98" filterUnits="userSpaceOnUse" color-interpolation-filters="sRGB">
<feFlood flood-opacity="0" result="BackgroundImageFix"/>
<feBlend mode="normal" in="SourceGraphic" in2="BackgroundImageFix" result="shape"/>
<feColorMatrix in="SourceAlpha" type="matrix" values="0 0 0 0 0 0 0 0 0 0 0 0 0 0 0 0 0 0 127 0" result="hardAlpha"/>
<feOffset dy="-14"/>
<feGaussianBlur stdDeviation="2"/>
<feComposite in2="hardAlpha" operator="arithmetic" k2="-1" k3="1"/>
<feColorMatrix type="matrix" values="0 0 0 0 0.620785 0 0 0 0 0.0184722 0 0 0 0 0.633333 0 0 0 1 0"/>
<feBlend mode="normal" in2="shape" result="effect1_innerShadow_92_37"/>
<feColorMatrix in="SourceAlpha" type="matrix" values="0 0 0 0 0 0 0 0 0 0 0 0 0 0 0 0 0 0 127 0" result="hardAlpha"/>
<feOffset dx="2" dy="20"/>
<feGaussianBlur stdDeviation="2"/>
<feComposite in2="hardAlpha" operator="arithmetic" k2="-1" k3="1"/>
<feColorMatrix type="matrix" values="0 0 0 0 0.988521 0 0 0 0 0.4375 0 0 0 0 1 0 0 0 1 0"/>
<feBlend mode="normal" in2="effect1_innerShadow_92_37" result="effect2_innerShadow_92_37"/>
</filter>
<filter id="filter1_i_92_37" x="53.861" y="32.3672" width="117.708" height="32.9062" filterUnits="userSpaceOnUse" color-interpolation-filters="sRGB">
<feFlood flood-opacity="0" result="BackgroundImageFix"/>
<feBlend mode="normal" in="SourceGraphic" in2="BackgroundImageFix" result="shape"/>
<feColorMatrix in="SourceAlpha" type="matrix" values="0 0 0 0 0 0 0 0 0 0 0 0 0 0 0 0 0 0 127 0" result="hardAlpha"/>
<feOffset dy="4"/>
<feGaussianBlur stdDeviation="2"/>
<feComposite in2="hardAlpha" operator="arithmetic" k2="-1" k3="1"/>
<feColorMatrix type="matrix" values="0 0 0 0 0 0 0 0 0 0 0 0 0 0 0 0 0 0 0.25 0"/>
<feBlend mode="normal" in2="shape" result="effect1_innerShadow_92_37"/>
</filter>
</defs>
</svg>
