<svg width="221" height="90" viewBox="0 0 221 90" fill="none" xmlns="http://www.w3.org/2000/svg">
<g filter="url(#filter0_ii_92_37)">
<rect width="221" height="90" rx="30" fill="#F100F5"/>
</g>
<rect x="1.5" y="1.5" width="218" height="87" rx="28.5" stroke="white" stroke-width="3"/>
<g filter="url(#filter1_i_92_37)">
<path d="M59.4844 50.6094C59.4844 52.3932 59.1719 53.9557 58.5469 55.2969C57.9349 56.625 57.0885 57.7318 56.0078 58.6172C54.9401 59.5026 53.6836 60.1667 52.2383 60.6094C50.806 61.0521 49.263 61.2734 47.6094 61.2734C46.9714 61.2734 46.2682 61.1888 45.5 61.0195C44.7448 60.8503 43.9766 60.6419 43.1953 60.3945C42.4141 60.1341 41.6589 59.8607 40.9297 59.5742C40.2135 59.2747 39.5755 58.9948 39.0156 58.7344L39.875 50.6875C40.9818 51.3516 42.2057 51.8594 43.5469 52.2109C44.901 52.5495 46.2292 52.7188 47.5312 52.7188C47.7786 52.7188 48.0781 52.7122 48.4297 52.6992C48.7812 52.6732 49.1133 52.6146 49.4258 52.5234C49.7513 52.4193 50.0247 52.2695 50.2461 52.0742C50.4674 51.8789 50.5781 51.599 50.5781 51.2344C50.5781 50.987 50.5 50.7786 50.3438 50.6094C50.1875 50.4271 49.9857 50.2839 49.7383 50.1797C49.4909 50.0625 49.2109 49.9779 48.8984 49.9258C48.5859 49.8607 48.2799 49.8151 47.9805 49.7891C47.681 49.763 47.401 49.75 47.1406 49.75C46.8802 49.75 46.6719 49.75 46.5156 49.75C45.3958 49.75 44.3737 49.5547 43.4492 49.1641C42.5378 48.7734 41.75 48.2331 41.0859 47.543C40.4349 46.8398 39.9271 46.013 39.5625 45.0625C39.1979 44.099 39.0156 43.0573 39.0156 41.9375C39.0156 40.401 39.3216 39.0273 39.9336 37.8164C40.5586 36.5924 41.3854 35.5573 42.4141 34.7109C43.4557 33.8516 44.6471 33.194 45.9883 32.7383C47.3294 32.2826 48.7161 32.0547 50.1484 32.0547C50.7865 32.0547 51.444 32.0807 52.1211 32.1328C52.7982 32.1719 53.4688 32.25 54.1328 32.3672C54.8099 32.4844 55.4674 32.6341 56.1055 32.8164C56.7435 32.9987 57.349 33.2266 57.9219 33.5L57.1797 41.4297C56.2943 41.1302 55.3633 40.8828 54.3867 40.6875C53.4232 40.4792 52.4792 40.375 51.5547 40.375C51.3854 40.375 51.1641 40.3815 50.8906 40.3945C50.6302 40.3945 50.3503 40.4141 50.0508 40.4531C49.7643 40.4792 49.4714 40.5247 49.1719 40.5898C48.8724 40.6549 48.6055 40.7461 48.3711 40.8633C48.1367 40.9674 47.9479 41.1107 47.8047 41.293C47.6615 41.4753 47.5964 41.6901 47.6094 41.9375C47.6224 42.224 47.7266 42.4583 47.9219 42.6406C48.1302 42.8099 48.3906 42.9466 48.7031 43.0508C49.0286 43.1419 49.3802 43.207 49.7578 43.2461C50.1484 43.2852 50.5326 43.3112 50.9102 43.3242C51.2878 43.3242 51.6393 43.3242 51.9648 43.3242C52.2904 43.3112 52.5573 43.3177 52.7656 43.3438C53.8073 43.4089 54.7448 43.6302 55.5781 44.0078C56.4115 44.3854 57.1146 44.8867 57.6875 45.5117C58.2734 46.1367 58.7161 46.8854 59.0156 47.7578C59.3281 48.6172 59.4844 49.5677 59.4844 50.6094ZM85.8156 33.5C85.2297 38.0833 84.7284 42.6471 84.3117 47.1914C83.8951 51.7227 83.4979 56.2865 83.1203 60.8828L75.1125 61.4688L75.4641 58.4609C75.2036 58.7604 74.8977 59.0208 74.5461 59.2422C74.2076 59.4635 73.843 59.6458 73.4523 59.7891C73.0617 59.9193 72.6581 60.0169 72.2414 60.082C71.8247 60.1341 71.4276 60.1536 71.05 60.1406C70.1646 60.1276 69.3312 59.9583 68.55 59.6328C67.7687 59.2943 67.0526 58.8516 66.4016 58.3047C65.7505 57.7448 65.1646 57.1003 64.6437 56.3711C64.1229 55.6289 63.6802 54.8542 63.3156 54.0469C62.9641 53.2266 62.6906 52.3932 62.4953 51.5469C62.313 50.7005 62.2219 49.8802 62.2219 49.0859C62.2219 47.9141 62.2414 46.7031 62.2805 45.4531C62.3326 44.1901 62.4172 42.9271 62.5344 41.6641C62.6516 40.401 62.8013 39.151 62.9836 37.9141C63.1789 36.6771 63.4198 35.4922 63.7062 34.3594C65.2948 34.4375 66.8898 34.5091 68.4914 34.5742C70.093 34.6393 71.688 34.6589 73.2766 34.6328C72.9771 35.7656 72.6776 36.9049 72.3781 38.0508C72.0917 39.1836 71.8312 40.3294 71.5969 41.4883C71.3625 42.6341 71.1737 43.7865 71.0305 44.9453C70.8872 46.1042 70.8156 47.276 70.8156 48.4609C70.8156 48.7344 70.8286 49.125 70.8547 49.6328C70.8807 50.1406 70.9458 50.6419 71.05 51.1367C71.1672 51.6315 71.3365 52.0677 71.5578 52.4453C71.7922 52.8099 72.1177 52.9922 72.5344 52.9922C73.0292 52.9922 73.4719 52.7839 73.8625 52.3672C74.2531 51.9375 74.5982 51.3646 74.8977 50.6484C75.1971 49.9323 75.451 49.1055 75.6594 48.168C75.8807 47.2305 76.063 46.2539 76.2062 45.2383C76.3625 44.2096 76.4862 43.1745 76.5773 42.1328C76.6685 41.0911 76.7336 40.1146 76.7727 39.2031C76.8247 38.2786 76.8573 37.4518 76.8703 36.7227C76.8964 35.9935 76.9094 35.4271 76.9094 35.0234C76.9094 34.763 76.9029 34.5091 76.8898 34.2617C76.8768 34.0143 76.8573 33.7604 76.8312 33.5C77.6776 33.526 78.5174 33.5456 79.3508 33.5586C80.1841 33.5716 81.024 33.5781 81.8703 33.5781C82.5214 33.5781 83.1724 33.5781 83.8234 33.5781C84.4875 33.5651 85.1516 33.5391 85.8156 33.5ZM111.522 54.0469C111.522 55.1276 111.32 56.0586 110.916 56.8398C110.526 57.6211 109.998 58.2852 109.334 58.832C108.67 59.3789 107.902 59.8281 107.03 60.1797C106.17 60.5182 105.272 60.7852 104.334 60.9805C103.397 61.1758 102.453 61.306 101.502 61.3711C100.565 61.4362 99.6859 61.4688 98.8656 61.4688C98.0583 61.4688 97.2185 61.4362 96.3461 61.3711C95.4867 61.319 94.6273 61.2214 93.768 61.0781C92.9086 60.9349 92.0622 60.7461 91.2289 60.5117C90.3956 60.2643 89.6078 59.9583 88.8656 59.5938L88.8266 34.4375C89.5557 34.138 90.3305 33.8711 91.1508 33.6367C91.9711 33.3893 92.8044 33.1875 93.6508 33.0312C94.5102 32.862 95.363 32.7383 96.2094 32.6602C97.0557 32.569 97.876 32.5234 98.6703 32.5234C99.5948 32.5234 100.526 32.582 101.463 32.6992C102.414 32.8164 103.325 33.0117 104.198 33.2852C105.07 33.5586 105.884 33.9167 106.639 34.3594C107.394 34.7891 108.052 35.3229 108.612 35.9609C109.185 36.599 109.627 37.3411 109.94 38.1875C110.265 39.0339 110.428 40.0104 110.428 41.1172C110.428 41.8464 110.324 42.5299 110.116 43.168C109.907 43.806 109.608 44.3789 109.217 44.8867C108.827 45.3945 108.351 45.8307 107.791 46.1953C107.232 46.5469 106.6 46.8073 105.897 46.9766C106.743 47.1979 107.511 47.5234 108.202 47.9531C108.905 48.3828 109.497 48.9036 109.979 49.5156C110.474 50.1276 110.851 50.8177 111.112 51.5859C111.385 52.3542 111.522 53.1745 111.522 54.0469ZM101.6 42.9141C101.6 42.5365 101.522 42.2174 101.366 41.957C101.209 41.6836 101.014 41.4622 100.78 41.293C100.558 41.1237 100.311 41 100.037 40.9219C99.7771 40.8438 99.5427 40.8047 99.3344 40.8047C99.074 40.8047 98.8201 40.8438 98.5727 40.9219C98.3253 41 98.0844 41.0911 97.85 41.1953L97.7328 45.5312C98.0323 45.5312 98.4034 45.5052 98.8461 45.4531C99.2888 45.401 99.712 45.2904 100.116 45.1211C100.532 44.9388 100.884 44.6784 101.17 44.3398C101.457 43.9883 101.6 43.513 101.6 42.9141ZM98.8266 49.2812C98.449 49.2812 98.0844 49.3203 97.7328 49.3984L97.6547 53.8516C97.85 53.8906 98.0388 53.9297 98.2211 53.9688C98.4164 53.9948 98.6052 54.0078 98.7875 54.0078C99.0609 54.0078 99.3604 53.9818 99.6859 53.9297C100.011 53.8646 100.317 53.7474 100.604 53.5781C100.89 53.3958 101.125 53.1549 101.307 52.8555C101.502 52.556 101.6 52.1589 101.6 51.6641C101.6 51.1693 101.502 50.7656 101.307 50.4531C101.125 50.1406 100.897 49.8997 100.623 49.7305C100.35 49.5482 100.051 49.431 99.725 49.3789C99.3995 49.3138 99.1 49.2812 98.8266 49.2812ZM148.517 47.7578C148.517 49.6198 148.459 51.4753 148.341 53.3242C148.224 55.1732 148.088 57.0286 147.931 58.8906L137.892 59.3594C138.192 57.0938 138.459 54.8281 138.693 52.5625C138.94 50.2839 139.064 48.0052 139.064 45.7266C139.064 45.5833 139.058 45.3359 139.045 44.9844C139.032 44.6198 139.005 44.2096 138.966 43.7539C138.94 43.2982 138.895 42.8294 138.83 42.3477C138.778 41.8529 138.699 41.4036 138.595 41C138.504 40.5833 138.387 40.2448 138.244 39.9844C138.101 39.724 137.931 39.5938 137.736 39.5938C137.28 39.5938 136.922 39.7695 136.662 40.1211C136.401 40.4596 136.206 40.8698 136.076 41.3516C135.959 41.8333 135.887 42.3281 135.861 42.8359C135.835 43.3307 135.822 43.7344 135.822 44.0469C135.822 44.5938 135.835 45.1406 135.861 45.6875C135.887 46.2344 135.9 46.7943 135.9 47.3672C135.9 49.3854 135.848 51.3971 135.744 53.4023C135.653 55.4076 135.535 57.4193 135.392 59.4375L126.134 59.7891C126.434 57.5234 126.694 55.2643 126.916 53.0117C127.15 50.7461 127.267 48.474 127.267 46.1953C127.267 46.0521 127.261 45.7917 127.248 45.4141C127.235 45.0365 127.209 44.6133 127.17 44.1445C127.143 43.6758 127.098 43.1875 127.033 42.6797C126.968 42.1719 126.883 41.7096 126.779 41.293C126.688 40.8633 126.571 40.5117 126.427 40.2383C126.284 39.9648 126.108 39.8281 125.9 39.8281C125.574 39.8281 125.301 39.9583 125.08 40.2188C124.858 40.4661 124.676 40.7917 124.533 41.1953C124.403 41.599 124.298 42.0482 124.22 42.543C124.155 43.0247 124.103 43.5 124.064 43.9688C124.038 44.4375 124.018 44.8737 124.005 45.2773C124.005 45.668 123.999 45.9609 123.986 46.1562L123.556 60.4141H113.713C113.921 58.2135 114.129 56.0065 114.338 53.793C114.559 51.5794 114.748 49.3724 114.904 47.1719C115.073 44.9583 115.21 42.7448 115.314 40.5312C115.418 38.3177 115.47 36.1042 115.47 33.8906L124.767 33.5L124.728 35.7656C125.015 35.401 125.34 35.0365 125.705 34.6719C126.069 34.2943 126.453 33.9622 126.857 33.6758C127.274 33.3763 127.71 33.1354 128.166 32.9531C128.634 32.7708 129.116 32.6797 129.611 32.6797C130.249 32.6797 130.822 32.7318 131.33 32.8359C131.838 32.9271 132.293 33.0898 132.697 33.3242C133.114 33.5586 133.478 33.8841 133.791 34.3008C134.103 34.7044 134.377 35.2188 134.611 35.8438C135.028 35.388 135.444 34.9648 135.861 34.5742C136.291 34.1836 136.74 33.8516 137.209 33.5781C137.677 33.2917 138.185 33.0703 138.732 32.9141C139.279 32.7578 139.884 32.6797 140.548 32.6797C141.811 32.6797 142.886 32.9271 143.771 33.4219C144.657 33.9036 145.392 34.5482 145.978 35.3555C146.577 36.1628 147.039 37.0872 147.365 38.1289C147.703 39.1706 147.957 40.2513 148.127 41.3711C148.296 42.4909 148.4 43.6042 148.439 44.7109C148.491 45.8177 148.517 46.8333 148.517 47.7578ZM162.309 33.5L160.942 60.1016L152.7 60.5312L151.919 34.0469L162.309 33.5ZM186.395 33.4609L186.199 41.7422L180.379 41.9766L179.676 60.1016L171.434 60.5312L170.691 42.4062L164.871 42.7188L165.105 33.5L186.395 33.4609Z" fill="white"/>
</g>
<defs>
<filter id="filter0_ii_92_37" x="0" y="-4" width="223" height="98" filterUnits="userSpaceOnUse" color-interpolation-filters="sRGB">
<feFlood flood-opacity="0" result="BackgroundImageFix"/>
<feBlend mode="normal" in="SourceGraphic" in2="BackgroundImageFix" result="shape"/>
<feColorMatrix in="SourceAlpha" type="matrix" values="0 0 0 0 0 0 0 0 0 0 0 0 0 0 0 0 0 0 127 0" result="hardAlpha"/>
<feOffset dy="-14"/>
<feGaussianBlur stdDeviation="2"/>
<feComposite in2="hardAlpha" operator="arithmetic" k2="-1" k3="1"/>
<feColorMatrix type="matrix" values="0 0 0 0 0.620785 0 0 0 0 0.0184722 0 0 0 0 0.633333 0 0 0 1 0"/>
<feBlend mode="normal" in2="shape" result="effect1_innerShadow_92_37"/>
<feColorMatrix in="SourceAlpha" type="matrix" values="0 0 0 0 0 0 0 0 0 0 0 0 0 0 0 0 0 0 127 0" result="hardAlpha"/>
<feOffset dx="2" dy="20"/>
<feGaussianBlur stdDeviation="2"/>
<feComposite in2="hardAlpha" operator="arithmetic" k2="-1" k3="1"/>
<feColorMatrix type="matrix" values="0 0 0 0 0.988521 0 0 0 0 0.4375 0 0 0 0 1 0 0 0 1 0"/>
<feBlend mode="normal" in2="effect1_innerShadow_92_37" result="effect2_innerShadow_92_37"/>
</filter>
<filter id="filter1_i_92_37" x="39.0156" y="32.0547" width="147.379" height="33.4141" filterUnits="userSpaceOnUse" color-interpolation-filters="sRGB">
<feFlood flood-opacity="0" result="BackgroundImageFix"/>
<feBlend mode="normal" in="SourceGraphic" in2="BackgroundImageFix" result="shape"/>
<feColorMatrix in="SourceAlpha" type="matrix" values="0 0 0 0 0 0 0 0 0 0 0 0 0 0 0 0 0 0 127 0" result="hardAlpha"/>
<feOffset dy="4"/>
<feGaussianBlur stdDeviation="2"/>
<feComposite in2="hardAlpha" operator="arithmetic" k2="-1" k3="1"/>
<feColorMatrix type="matrix" values="0 0 0 0 0 0 0 0 0 0 0 0 0 0 0 0 0 0 0.25 0"/>
<feBlend mode="normal" in2="shape" result="effect1_innerShadow_92_37"/>
</filter>
</defs>
</svg>
